<?xml version="1.0" encoding="UTF-8"?>
<svg id="Ebene_1" data-name="Ebene 1" xmlns="http://www.w3.org/2000/svg" viewBox="0 0 111.75 127.84">
  <defs>
    <style>
      .cls-1 {
        fill: #d9d66e;
      }

      .cls-2 {
        fill: #2b2b37;
      }

      .cls-3 {
        fill: #ad8ed0;
      }
    </style>
  </defs>
  <path class="cls-1" d="M106.53,48.08v-.1c-.05-.41-.08-.65-.43-.75-1.2-.07-4.89-.02-9.8-.04-12.88,0-32.3-.03-44.56-.04-.72.04-.92-.12-.91.46.19,4.84,2.72,68.19,2.99,74.37.14.87,2.36.41,3.41.38,13.74-1.11,27.71-2.35,41.35.14,1.61.28,3.3.6,4.92.51,2.71-.1,3.72-1.45,3.79-4.05.17-2.41.14-5.81.11-8.29-.26-20.84.12-41.76-.88-62.59Z"/>
  <path class="cls-1" d="M55.35,43.25c15.34-.91,30.81-.59,46.17-.36h.09c.33-.08.49-.17.41-.46-5.45-9.38-19.11-32.13-21.82-36.71-.79-1.1-2.36-.84-3.75-.97-15.24-.59-30.58.4-45.71,2.18-2.41.23-4,.83-2.26,3.3,7.73,9.46,13.46,20.24,20.55,30.17,1.38,2.22,3.76,3.16,6.32,2.84Z"/>
  <path class="cls-1" d="M47.41,85.91c-.7-12.33-.04-24.88-.5-37.23.17-3.41-1.34-5.78-3.13-8.73-3.99-6.78-11.18-18.49-15.73-24.85-1.67-2.12-2.5-3.76-3.69-4.21-1.06.16-1.63,1.87-2.29,2.87-5.02,9.03-11.1,17.93-15.74,26.98-.71,1.39-1.5,3.04-1.89,4.41-.78,2.88-.08,6.44-.19,9.57.16,15.57-1.11,31.2.9,46.6.6,5.73,1.59,11.6.99,17.32-.09.95-.28,2.73.35,2.9,6.12.46,35.57.44,41.76.66.57,0,.98-.12,1.12-.78l.02-.1c.22-4.83.27-10.17.11-15.07-.32-6.8-1.67-13.57-2.09-20.35Z"/>
  <path class="cls-2" d="M107.36,41.75c-8.72-13.46-16.39-27.82-25.61-40.87l-.13-.1c-1.91-1.28-4.4-.6-6.6-.62-5.35.09-10.7.19-16.02.43-11.36.51-22.7,1.41-33.99,3.13-1.05.19-1.97.45-2.83,1.02-1.53,1.05-1.55,2.96-2.5,4.89C13,20.19,7,31.21,1.14,42.31.3,44.1-.04,45.99,0,47.97c.94,16.38-.54,32.91.45,49.28.42,5.58,1.38,11.4,1.49,16.99.55,2.88-2.04,8.63.43,10.47.75.51,1.87.66,3.2.74,2.96.18,7.16.07,10.17.02,21.39.74,41.39.28,63.13-.03,9.2.16,18.02,1.9,27.37,2.36,4.83.3,4.88-2.98,5.08-6.65.33-4.46-.15-8.71.15-13.1,1.02-20.55-1.03-41.06-1.34-61.46-.45-1.81-1.73-3.27-2.76-4.86ZM49.38,121.33l-.02.1c-.14.66-.54.79-1.12.78-6.19-.21-35.64-.2-41.76-.66-.64-.17-.44-1.95-.35-2.9.59-5.71-.39-11.59-.99-17.32-2.01-15.39-.74-31.03-.9-46.6.1-3.12-.6-6.68.19-9.57.39-1.37,1.19-3.02,1.89-4.41,4.64-9.05,10.72-17.96,15.74-26.98.66-1,1.23-2.71,2.29-2.87,1.19.45,2.02,2.09,3.69,4.21,4.55,6.36,11.75,18.07,15.73,24.85,1.8,2.95,3.3,5.32,3.13,8.73.46,12.34-.2,24.89.5,37.23.42,6.78,1.77,13.56,2.09,20.35.15,4.9.11,10.24-.11,15.07ZM49.03,40.41c-7.1-9.93-12.83-20.71-20.55-30.17-1.73-2.46-.14-3.07,2.26-3.3,15.13-1.78,30.47-2.78,45.71-2.18,1.39.14,2.96-.13,3.75.97,2.7,4.58,16.36,27.33,21.82,36.71.08.29-.08.38-.41.45h-.09c-15.36-.22-30.83-.54-46.17.37-2.56.31-4.94-.63-6.32-2.84ZM107.3,118.97c-.06,2.6-1.08,3.96-3.79,4.05-1.62.09-3.31-.23-4.92-.51-13.64-2.5-27.61-1.25-41.35-.14-1.05.03-3.28.49-3.41-.38-.27-6.18-2.8-69.53-2.99-74.37,0-.58.19-.41.91-.46,12.25,0,31.68.03,44.56.04,4.9.02,8.59-.03,9.8.04.35.1.38.34.42.75v.1c1.01,20.84.63,41.76.89,62.59.03,2.48.06,5.88-.11,8.29Z"/>
  <g>
    <path class="cls-3" d="M16.08,66.84c-.06,4.5.14,8.08.55,13.18.33,3.02.4,6.49,1.66,9.2,3.72,6.43,3.24-3.55,3.27-5.94.05-2.97-.56-5.93-.3-8.85.17-1.28.35-2.15,1.27-2.94,1.09-.89,3.02-.53,5.25-.56h.25c3.98-.05,8.44-1.47,9.26-5.19.68-2.55.08-5.55-1.72-7.23-1.83-1.7-4.12-2.58-6.92-3.41-4.03-.88-8.13-2.01-11.54-.6-1.11.76-1.12,2.25-1.08,3.58.2,2.86.1,5.87.06,8.76ZM24.56,58.98l.24-.05c5.31-1.05,7.71,6.85,2.13,8.05-4.25.85-7.18-6.86-2.36-8Z"/>
    <g>
      <path class="cls-2" d="M12.48,79.65c-.05,4.34.8,9.13,1.87,13.24.42,1.38.96,2.32,2.07,2.98,1.86,1.14,5.43,1.18,7.13.11,3.28-2.24,1.69-9.21,1.9-13.65-.42-6.19.6-6.42,5.93-6.99,7.88-.67,11.71-8.52,9.92-15.69l-.07-.2c-2.78-8.41-19.26-11.17-26.63-8.42-3.34,1.69-2.75,6.07-2.64,9.26.39,6.39.55,12.89.52,19.36ZM17.1,54.5c3.41-1.41,7.51-.28,11.54.6,2.8.83,5.1,1.72,6.92,3.41,1.8,1.69,2.4,4.69,1.72,7.23-.82,3.71-5.28,5.14-9.26,5.18h-.25c-2.23.04-4.16-.32-5.25.57-.92.79-1.09,1.66-1.27,2.94-.25,2.92.36,5.88.3,8.85-.04,2.39.45,12.37-3.27,5.94-1.25-2.7-1.33-6.18-1.66-9.2-.41-5.1-.61-8.69-.55-13.18.04-2.89.15-5.9-.06-8.76-.04-1.33-.03-2.82,1.08-3.58Z"/>
      <path class="cls-2" d="M26.92,66.98c5.58-1.2,3.18-9.1-2.13-8.05l-.24.05c-4.81,1.14-1.88,8.85,2.36,8Z"/>
    </g>
  </g>
</svg>