<?xml version="1.0" encoding="UTF-8"?>
<svg id="Ebene_1" data-name="Ebene 1" xmlns="http://www.w3.org/2000/svg" viewBox="0 0 177.68 93.44">
  <defs>
    <style>
      .cls-fuellstand {
        fill: #d9d66e;
      }

      .cls-kontur {
        fill: #2b2b37;
      }

      .cls-p {
        fill: #ad8ed0;
      }
    </style>
  </defs>
  <g>
    <path class="cls-fuellstand" d="M160.45,23.98c-2.78-3.61-6-6.85-9.05-10.24-1.5-1.17-4.21-6.3-6.14-5.25-.6.28-1.25,1.14-1.7,1.8-4.22,6.19-8.77,12.21-12.21,18.86-2.27,4.22-4.14,8.49-6.72,12.55-1.41,2.35-3.53,4.76-4.66,7.19-.81,3.01.72,6.32.5,9.45.46,8.61-.99,16.86-1.22,25.25.15,1.95-.14,3.54,1.69,3.86,4.63.6,25.03-.07,32.14,0,4.93.03,12.63,1.91,16.9,1.79.6-.05,1.09-.27,1.38-.79l.05-.11c.36-.81.34-2.21.35-3.27.12-11.43,1.64-22.82,2.01-34.25.16-2.53-.47-4.98-1.79-7.14-3.84-6.54-6.97-13.88-11.53-19.71Z"/>
    <path class="cls-fuellstand" d="M92,48.23c5.84-.22,12.25.39,18.05.22,2.56-.09,4.59-.4,6.42-1.86,4.6-4.32,8.99-14.15,13.03-21.18,2.98-5.61,7.46-10.93,10.94-16.33l.04-.08c.24-.44.25-.62.06-.66-6.61.24-101.43-5.17-108.13-3.81C25.58,15.49,8.25,41.32,5.44,46.76c28.38,1.56,57.79,1.9,86.56,1.48Z"/>
    <path class="cls-fuellstand" d="M116.51,55.99c-.08-1.1-.34-2.39-1.11-3.09l-.11-.1c-.74-.63-1.9-.77-3.21-.76-18.16.27-36.27,1.72-54.48.69-7.64-.38-15.28-.98-22.92-1.4-6.85-.53-13.66-.42-20.47-.07-2.11-.09-4.61-.36-6.72-.23-2.93.02-3.14,2.01-2.92,4.35.18,2.7.15,5.44.02,8.16-.33,7.03-1.32,14.19-.43,21.18.19.79.17,1.08.7,1.11,6.67.07,82.39.81,105.66,1.04,1.58.01,2.55.03,3.76.04.71-.04,1.09.24,1.19-.62-.16-10.03,1.76-20.29,1.06-30.31Z"/>
    <path class="cls-kontur" d="M171.21,33.68c-5.27-10.71-14.18-19.05-22.23-27.89-.94-1.02-1.96-2.09-3.29-2.45-1.92-.58-4.01.58-6.18.68-4.4.16-9.32-.67-13.98-1.21-19.25-2-38.71.17-57.93-1.41C60.8.75,54-.08,47.14,0c-4.56,0-9.21.11-13.72.2-.96.04-1.93.19-2.77.59l-.15.07c-2.08,1.12-2.95,3.58-4.24,5.53C18.18,19.07,10.02,31.73,2.27,44.59c-1.26,2.16-1.74,4.61-1.68,7.09.14,10.45-.88,20.8-.51,31.24.06,2.79-.6,7.16,3.4,6.99,30.25-.58,60.53,2.4,90.76,1.24,19.38-.39,38.99-1.52,58.3-.21,5.33.49,11.44,2.05,16.48,2.44,1.92.17,3.85,0,5.07-1.03,1.97-1.74,1.96-4.89,2.11-7.57.15-4.97-.27-9.84.14-14.77.34-8.17,2.16-16.62.91-24.78-1.28-4.01-4.26-7.64-6.04-11.55ZM32.42,4.52c6.7-1.36,101.52,4.05,108.13,3.81.19.05.18.22-.06.66l-.04.08c-3.48,5.4-7.96,10.73-10.94,16.33-4.04,7.03-8.43,16.86-13.03,21.18-1.83,1.47-3.86,1.77-6.42,1.86-5.8.16-12.21-.44-18.05-.22-28.77.42-58.17.09-86.56-1.48,2.81-5.44,20.13-31.27,26.98-42.24ZM115.45,86.3c-.1.86-.47.57-1.19.62-1.21,0-2.17-.03-3.76-.04-23.27-.23-99-.97-105.66-1.04-.53-.03-.52-.32-.7-1.11-.89-6.99.1-14.15.43-21.18.14-2.71.16-5.45-.02-8.16-.21-2.34,0-4.33,2.92-4.35,2.11-.14,4.61.13,6.72.23,6.82-.35,13.63-.46,20.47.07,7.64.42,15.28,1.02,22.92,1.4,18.2,1.03,36.32-.42,54.48-.69,1.32-.02,2.48.13,3.21.76l.11.1c.77.7,1.03,1.99,1.11,3.09.7,10.02-1.22,20.28-1.06,30.31ZM173.76,50.83c-.37,11.43-1.89,22.82-2.01,34.25-.01,1.05.01,2.46-.35,3.27l-.05.11c-.29.52-.78.73-1.38.79-4.27.12-11.97-1.76-16.9-1.79-7.1-.06-27.51.61-32.14,0-1.83-.32-1.54-1.91-1.69-3.86.23-8.39,1.68-16.65,1.22-25.25.22-3.13-1.31-6.44-.5-9.45,1.13-2.42,3.24-4.84,4.66-7.19,2.58-4.06,4.45-8.34,6.72-12.55,3.43-6.65,7.99-12.67,12.21-18.86.45-.66,1.1-1.52,1.7-1.8,1.93-1.05,4.64,4.08,6.14,5.25,3.05,3.38,6.27,6.63,9.05,10.24,4.55,5.84,7.68,13.17,11.53,19.71,1.32,2.15,1.95,4.61,1.79,7.14Z"/>
  </g>
  <g>
    <path class="cls-p " d="M138.61,50.75c-.06,4.5.14,8.08.55,13.18.33,3.02.4,6.49,1.66,9.2,3.72,6.43,3.24-3.55,3.27-5.94.05-2.97-.56-5.93-.3-8.85.17-1.28.35-2.15,1.27-2.94,1.09-.89,3.02-.53,5.25-.56h.25c3.98-.05,8.44-1.47,9.26-5.19.68-2.55.08-5.55-1.72-7.23-1.83-1.7-4.12-2.58-6.92-3.41-4.03-.88-8.13-2.01-11.54-.6-1.11.76-1.12,2.25-1.08,3.58.2,2.86.1,5.87.06,8.76ZM147.09,42.9l.24-.05c5.31-1.05,7.71,6.85,2.13,8.05-4.25.85-7.18-6.86-2.36-8Z"/>
    <g>
      <path class="cls-kontur" d="M135,63.56c-.05,4.34.8,9.13,1.87,13.24.42,1.38.96,2.32,2.07,2.98,1.86,1.14,5.43,1.18,7.13.11,3.28-2.24,1.69-9.21,1.9-13.65-.42-6.19.6-6.42,5.93-6.99,7.88-.67,11.71-8.52,9.92-15.69l-.07-.2c-2.78-8.41-19.26-11.17-26.63-8.42-3.34,1.69-2.75,6.07-2.64,9.26.39,6.39.55,12.89.52,19.36ZM139.63,38.41c3.41-1.41,7.51-.28,11.54.6,2.8.83,5.1,1.72,6.92,3.41,1.8,1.69,2.4,4.69,1.72,7.23-.82,3.71-5.28,5.14-9.26,5.18h-.25c-2.23.04-4.16-.32-5.25.57-.92.79-1.09,1.66-1.27,2.94-.25,2.92.36,5.88.3,8.85-.04,2.39.45,12.37-3.27,5.94-1.25-2.7-1.33-6.18-1.66-9.2-.41-5.1-.61-8.69-.55-13.18.04-2.89.15-5.9-.06-8.76-.04-1.33-.03-2.82,1.08-3.58Z"/>
      <path class="cls-kontur" d="M149.45,50.9c5.58-1.2,3.18-9.1-2.13-8.05l-.24.05c-4.81,1.14-1.88,8.85,2.36,8Z"/>
    </g>
  </g>
</svg>