<?xml version="1.0" encoding="UTF-8"?>
<svg id="Ebene_1" data-name="Ebene 1" xmlns="http://www.w3.org/2000/svg" viewBox="0 0 107.89 178.77">
  <defs>
    <style>
      .cls-fuellstand {
        fill: #d9d66e;
      }

      .cls-kontur {
        fill: #2b2b37;
      }

      .cls-p  {
        fill: #ad8ed0;
      }
    </style>
  </defs>
  <path class="cls-fuellstand" d="M85.18,6.7c.49-.47,1.3-1.27,1.17-1.82l-.03-.07c-.16-.3-.74-.39-1.56-.35-1.96.15-4.22.46-6.27.5-16.24.92-32.55-1.62-48.55-.28-1.38.36-2.59,1.17-3.65,2.14-5.71,5.33-11.75,10.35-17.67,15.43-2.49,2.09-1.09,2.37,1.34,2.24,17.91-.7,35.83-1.39,53.71-2.5,1.68-.14,3.24-.59,4.63-1.52,5.63-4.54,11.54-8.97,16.89-13.77Z"/>
  <path class="cls-fuellstand" d="M88.51,7.87c-3.54,2.9-15.71,13.04-19.26,15.99-2.97,2.22-1.31,6.84-1.45,10.2.65,44.89-3.17,91.2,2.15,135.42.27,1.97.41,2.92,1.97,3.07,5.47.07,24.87,1.43,29.99,1.11l.03-.03c.12-5.15-1.73-22.37-2.26-31.44-.2-2.55-.3-3.24-.12-5.39,2.66-30.39,3.77-60.84,4.2-91.29,1.23-19.01-3.3-22.22-13.23-37.42-.68-.87-1.26-.79-2.01-.22Z"/>
  <path class="cls-fuellstand" d="M64.65,59.5c-.1-4.24,1.2-33.27-2.76-33.2-16.12.57-42.9,1.5-57.52,2.05-.53.05-.61,0-.6.38.19,4.58,5.2,114.14,6.54,144.34.07.36.3.31.86.35h.1c14.81-.77,29.75,2.37,44.54.98,2.37-.26,5.36-.58,7.49-1.13,2.28-.6,2.75-2.24,2.59-4.57-3.71-36.2-2.66-72.84-1.24-109.2Z"/>
  <path class="cls-kontur" d="M107.72,54.29c-.02-6.75-.1-13.53-.4-20.19-.18-3.42.65-6.35-.84-9.15-2.59-5.19-9.12-13.4-12.61-18.81-1.19-1.73-1.68-3.98-3.42-5.22C88.49-.29,86.13,0,83.83.12c-4.19.33-8.31.98-12.48,1.02-12.8.22-25.73-.33-38.54-.61-6.43-1.13-7.6,1.81-11.5,6.06l-.11.11C16.05,11.67,3.41,21.34,0,25.75c.96,41.87,3.96,84.35,4.87,126.48.11,5.52.23,11.02.68,16.53.51,3.17-.22,8.77,4.36,8.67,15.83-.56,31.43,2.4,47.16.94,3.63-.55,7.35-1.51,11.06-1.11,2.1-.06,4.37-1.21,6.68-1.21,7.75-.27,17.13,1.11,24.65,1.68,4.76.49,8.59.03,7.24-5.68-1.03-3.89-1.42-7.94-1.76-11.95-2.75-35.28,4.1-70.51,2.78-105.81ZM63.3,173.26c-2.13.55-5.13.87-7.49,1.13-14.79,1.39-29.72-1.75-44.54-.98h-.1c-.56-.05-.78,0-.86-.36C8.97,142.87,3.96,33.31,3.77,28.73c0-.38.07-.33.6-.38,14.62-.56,41.41-1.49,57.52-2.05,3.96-.06,2.66,28.97,2.76,33.2-1.42,36.36-2.47,73,1.24,109.2.16,2.33-.31,3.97-2.59,4.57ZM63.67,21.99c-17.88,1.12-35.8,1.8-53.71,2.5-2.43.13-3.83-.16-1.34-2.24,5.92-5.08,11.97-10.1,17.67-15.43,1.06-.96,2.26-1.78,3.65-2.14,16.01-1.34,32.31,1.2,48.55.28,2.05-.03,4.31-.35,6.27-.5.82-.04,1.4.05,1.56.35l.03.07c.13.54-.67,1.35-1.17,1.82-5.35,4.8-11.26,9.23-16.89,13.77-1.39.94-2.95,1.39-4.63,1.52ZM103.75,45.5c-.43,30.45-1.54,60.91-4.2,91.29-.17,2.15-.08,2.84.12,5.39.54,9.07,2.38,26.29,2.26,31.44l-.03.03c-5.12.32-24.52-1.04-29.99-1.11-1.56-.15-1.7-1.1-1.97-3.07-5.32-44.22-1.5-90.53-2.15-135.42.14-3.37-1.52-7.98,1.45-10.2,3.55-2.95,15.72-13.08,19.26-15.99.75-.57,1.33-.65,2.01.22,9.93,15.2,14.46,18.41,13.23,37.42Z"/>
  <g>
    <path class="cls-p " d="M26.39,88.99c-.06,4.5.14,8.08.55,13.18.33,3.02.4,6.49,1.66,9.2,3.72,6.43,3.24-3.55,3.27-5.94.05-2.97-.56-5.93-.3-8.85.17-1.28.35-2.15,1.27-2.94,1.09-.89,3.02-.53,5.25-.56h.25c3.98-.05,8.44-1.47,9.26-5.19.68-2.55.08-5.55-1.72-7.23-1.83-1.7-4.12-2.58-6.92-3.41-4.03-.88-8.13-2.01-11.54-.6-1.11.76-1.12,2.25-1.08,3.58.2,2.86.1,5.87.06,8.76ZM34.87,81.14l.24-.05c5.31-1.05,7.71,6.85,2.13,8.05-4.25.85-7.18-6.86-2.36-8Z"/>
    <g>
      <path class="cls-kontur" d="M22.79,101.8c-.05,4.34.8,9.13,1.87,13.24.42,1.38.96,2.32,2.07,2.98,1.86,1.14,5.43,1.18,7.13.11,3.28-2.24,1.69-9.21,1.9-13.65-.42-6.19.6-6.42,5.93-6.99,7.88-.67,11.71-8.52,9.92-15.69l-.07-.2c-2.78-8.41-19.26-11.17-26.63-8.42-3.34,1.69-2.75,6.07-2.64,9.26.39,6.39.55,12.89.52,19.36ZM27.41,76.65c3.41-1.41,7.51-.28,11.54.6,2.8.83,5.1,1.72,6.92,3.41,1.8,1.69,2.4,4.69,1.72,7.23-.82,3.71-5.28,5.14-9.26,5.18h-.25c-2.23.04-4.16-.32-5.25.57-.92.79-1.09,1.66-1.27,2.94-.25,2.92.36,5.88.3,8.85-.04,2.39.45,12.37-3.27,5.94-1.25-2.7-1.33-6.18-1.66-9.2-.41-5.1-.61-8.69-.55-13.18.04-2.89.15-5.9-.06-8.76-.04-1.33-.03-2.82,1.08-3.58Z"/>
      <path class="cls-kontur" d="M37.23,89.14c5.58-1.2,3.18-9.1-2.13-8.05l-.24.05c-4.81,1.14-1.88,8.85,2.36,8Z"/>
    </g>
  </g>
</svg>